<svg width="114" height="30" viewBox="0 0 114 30" fill="none" xmlns="http://www.w3.org/2000/svg">
<g id="Flexe">
<g id="Group 3">
<path id="Subtract" fill-rule="evenodd" clip-rule="evenodd" d="M0.0767517 13.799V29.8613H3.67675V16.9013H16.2368V13.799H0.0767517ZM0.0767517 3.90565H3.59675V3.90131H17.2768V0.621307H0.0767517V3.90565ZM24.8611 0.661306V29.8613H41.6611V26.5813H28.4611V0.661306H24.8611ZM48.2455 0.661306V3.90565H65.0455V0.661306H48.2455ZM48.2455 13.3015H63.6455V16.2213H51.8055V26.5813H65.0455V29.8613H48.2455V13.3015ZM75.77 19.3954L69.8299 29.8613H73.8299L78.8699 20.5413C79.063 20.1766 79.256 19.7946 79.4491 19.3954H75.77ZM75.7559 10.5857H79.581C79.3707 10.1268 79.1603 9.6987 78.9499 9.30131L74.4299 0.661306H70.2699L75.7559 10.5857ZM80.968 10.5857H84.6109L90.1899 0.661306H86.2299L81.6299 9.30131C81.4195 9.6987 81.1989 10.1268 80.968 10.5857ZM84.7846 19.3954H80.8837C81.1016 19.8091 81.3104 20.2044 81.5099 20.5813L86.5099 29.8613H90.6299L84.7846 19.3954ZM96.2142 0.661306V3.90565H113.014V0.661306H96.2142ZM96.2142 29.8613V13.3015H111.614V16.2213H99.7743V26.5813H113.014V29.8613H96.2142Z" fill="white"/>
</g>
</g>
</svg>
