<svg width="91" height="91" viewBox="0 0 91 91" fill="none" xmlns="http://www.w3.org/2000/svg">
<path id="Union" fill-rule="evenodd" clip-rule="evenodd" d="M10.7761 4.68051H80.7761C84.0898 4.68051 86.7761 7.3668 86.7761 10.6805V80.6805C86.7761 83.9942 84.0898 86.6805 80.7761 86.6805H10.7761C7.46235 86.6805 4.77606 83.9942 4.77606 80.6805V10.6805C4.77606 7.3668 7.46235 4.68051 10.7761 4.68051ZM0.776062 10.6805C0.776062 5.15766 5.25321 0.680511 10.7761 0.680511H80.7761C86.2989 0.680511 90.7761 5.15766 90.7761 10.6805V80.6805C90.7761 86.2034 86.2989 90.6805 80.7761 90.6805H10.7761C5.25321 90.6805 0.776062 86.2034 0.776062 80.6805V10.6805ZM13.8491 10.9999C12.7446 10.9999 11.8491 11.8953 11.8491 12.9999V38.9999C11.8491 40.1045 12.7446 40.9999 13.8491 40.9999H39.8491C40.9537 40.9999 41.8492 40.1045 41.8492 38.9999V12.9999C41.8492 11.8953 40.9537 10.9999 39.8492 10.9999H13.8491ZM50.8775 10.9999C49.7729 10.9999 48.8775 11.8953 48.8775 12.9999V38.9999C48.8775 40.1045 49.7729 40.9999 50.8775 40.9999H76.8775C77.982 40.9999 78.8775 40.1045 78.8775 38.9999V12.9999C78.8775 11.8953 77.982 10.9999 76.8775 10.9999H50.8775ZM11.8492 51.1271C11.8492 50.0225 12.7446 49.1271 13.8492 49.1271H39.8492C40.9537 49.1271 41.8492 50.0225 41.8492 51.1271V77.1271C41.8492 78.2316 40.9537 79.1271 39.8492 79.1271H13.8492C12.7446 79.1271 11.8492 78.2316 11.8492 77.1271V51.1271Z" fill="#A0A0A0"/>
</svg>
